# xmcd CD database file
#
# Track frame offsets:
#	150
#	32795
#	53667
#	81100
#	109370
#	136260
#	162273
#	187124
#	225795
#
# Disc length: 3371 seconds
#
# Revision: 7
# Processed by: cddbd v1.5.1PL2 Copyright (c) Steve Scherf et al.
# Submitted via: CDex 1.51
#
DISCID=6c0d2909
DTITLE=Stanley Clarke - Al Di Meola -  Jean Luc Ponty - The Rite Of Strings
DYEAR=1995
DGENRE=Jazz
TTITLE0=Indigo (Ali Di Meola)
TTITLE1=Renassaince (Jan Luc Ponty)
TTITLE2=Song To John (S.Clarke - Chick Corea)
TTITLE3=Chilean Pipe Song (S.Clarke - Chick Corea)
TTITLE4=Topanga (Stanley Clark)
TTITLE5=Morocco  (Al Di Meola)
TTITLE6=Change Of Life (Jaan Luc Ponty)
TTITLE7=La Cancion De Sofia (Stanley Clarke)
TTITLE8=Memory Canyon (Jan Luc Ponty)
EXTD=YEAR: 1995
EXTT0=
EXTT1=
EXTT2=
EXTT3=
EXTT4=
EXTT5=
EXTT6=
EXTT7=
EXTT8=
PLAYORDER=
